<svg width="1200" height="298" viewBox="0 0 1200 298" fill="none" xmlns="http://www.w3.org/2000/svg">
<path fill-rule="evenodd" clip-rule="evenodd" d="M1200 149.055L1182 130.5C1164 111.944 1127 74.8332 1091 81.0184C1055 87.2036 1018 136.685 981.999 149.055C944.999 161.426 908.999 136.685 872.999 149.055C835.999 161.426 799.999 210.907 763.999 204.722C726.999 198.537 691 136.685 655 130.5C618 124.315 582 173.796 545 217.093C509 260.389 473 297.5 436 297.5C400 297.5 364 260.389 327 204.722C291 149.056 255 74.8333 218 68.6481C182 62.4629 145 124.315 109 136.685C72.9996 149.056 35.9996 111.944 17.9996 93.3889L-0.000385677 74.8333L-0.000392176 0.499861L17.9996 0.500103C35.9996 0.500102 64.5 0.499855 100.5 0.499852C136.5 0.499849 182 0.499875 218 0.499872C255 0.499869 275.5 0.499867 311.5 0.499864C348.5 0.499861 391.5 0.500101 427.5 0.500098C464.5 0.500095 502.5 0.500091 538.5 0.500088C575.5 0.500085 608.5 0.499899 645.5 0.499896C681.5 0.499893 726.999 0.499889 763.999 0.499886C799.999 0.499882 835.999 0.500001 872.999 0.499998C908.999 0.499995 944.999 0.499981 981.999 0.499897C1018 0.499894 1055 0.500104 1091 0.500101C1127 0.500098 1164 0.500003 1182 0.500002L1200 0.5L1200 149.055Z" fill="#172034"/>
</svg>
